# xmcd
#
# Track frame offsets:
#	150
#	12505
#	29487
#	42092
#	54890
#	70989
#	84392
#	104462
#	113821
#	133559
#	149402
#
# Disc length: 2279 seconds
#
# Revision: 0
# Processed by: cddbd v1.5.2PL0 Copyright (c) Steve Scherf et al.
# Submitted via: dBpowerAMP V4.0
#
DISCID=9308e50b
DTITLE=Branded - Merry Christmas
DYEAR=2006
DGENRE=Christmas
TTITLE0=Angels We Have Heard On High
TTITLE1=O Holy Night
TTITLE2=It Came Upon A Midnight Clear
TTITLE3=White Christmases in Houston
TTITLE4=Silent Night
TTITLE5=O Come All Ye Faithful
TTITLE6=King In The Cradle
TTITLE7=Go Tell It On The Mountian
TTITLE8=Our First Christmas in Heaven
TTITLE9=Sweet Little Jesus Boy
TTITLE10=King Of Glory
EXTD=
EXTT0=
EXTT1=
EXTT2=
EXTT3=
EXTT4=
EXTT5=
EXTT6=
EXTT7=
EXTT8=
EXTT9=
EXTT10=
PLAYORDER=
